<svg width="79" height="42" viewBox="0 0 79 42" fill="none" xmlns="http://www.w3.org/2000/svg">
<g clip-path="url(#clip0_1211_1491)">
<path d="M0 42L23.0733 0H29.9879L42.2043 23.4265L65.2703 23.2974C65.9581 23.168 66.6147 22.9071 67.2043 22.529C69.9882 20.7265 70.1263 16.8025 70.1755 15.3832C70.2152 14.2705 70.3921 9.22217 67.2211 7.38089C66.6214 7.03868 65.9568 6.8266 65.2703 6.75838L42.7537 6.84656L42.6491 19.3534L34.8638 3.91247L34.7759 0H68.1075C69.6447 0.160695 71.133 0.634734 72.481 1.39304C79.5201 5.41363 79.0094 15.8903 78.9812 16.3322C78.8765 18.0937 78.4579 24.6044 73.3675 28.0098C71.402 29.3241 69.401 29.7346 68.1075 29.8773L65.5361 29.7881L71.9201 41.7932H63.9443L57.9423 29.6989L19.9713 29.7881L23.5296 23.3205L34.2379 23.2974L26.6201 8.27004L8.56498 42H0Z" fill="white"/>
<path d="M38.9121 32.2783L43.7587 42.0002H51.8559L46.891 32.2783H38.9121Z" fill="white"/>
</g>
<defs>
<clipPath id="clip0_1211_1491">
<rect width="79" height="42" fill="white"/>
</clipPath>
</defs>
</svg>
